HIERARCHY
ROOT Hips
{
    OFFSET 0.000000 0.928721 -0.042845
    CHANNELS 6 Xposition Yposition Zposition Zrotation Xrotation Yrotation
    JOINT LeftUpLeg
    {
        OFFSET 0.083489 -0.088681 0.000333
        CHANNELS 3 Zrotation Xrotation Yrotation
        JOINT LeftLeg
        {
            OFFSET 0.034542 -0.354724 0.001330
            CHANNELS 3 Zrotation Xrotation Yrotation
            JOINT LeftFoot
            {
                OFFSET 0.007784 -0.378921 0.071573
                CHANNELS 3 Zrotation Xrotation Yrotation
                JOINT LeftToeBase
                {
                    OFFSET 0.000055 -0.078215 -0.096185
                    CHANNELS 3 Zrotation Xrotation Yrotation
                    End Site
                    {
                        OFFSET 0.000071 0.000000 -0.123972
                    }
                }
            }
        }
    }
    JOINT RightUpLeg
    {
        OFFSET -0.083451 -0.088681 0.000285
        CHANNELS 3 Zrotation Xrotation Yrotation
        JOINT RightLeg
        {
            OFFSET -0.034581 -0.354724 0.001138
            CHANNELS 3 Zrotation Xrotation Yrotation
            JOINT RightFoot
            {
                OFFSET -0.007784 -0.378921 0.072528
                CHANNELS 3 Zrotation Xrotation Yrotation
                JOINT RightToeBase
                {
                    OFFSET -0.006381 -0.069199 -0.095002
                    CHANNELS 3 Zrotation Xrotation Yrotation
                    End Site
                    {
                        OFFSET -0.007888 0.000000 -0.117441
                    }
                }
            }
        }
    }
    JOINT Spine02
    {
        OFFSET 0.000526 0.122996 0.013402
        CHANNELS 3 Zrotation Xrotation Yrotation
        JOINT Spine01
        {
            OFFSET 0.000526 0.122996 0.013402
            CHANNELS 3 Zrotation Xrotation Yrotation
            JOINT Spine
            {
                OFFSET 0.000526 0.122996 0.013402
                CHANNELS 3 Zrotation Xrotation Yrotation
                JOINT LeftShoulder
                {
                    OFFSET 0.037787 0.017717 0.013840
                    CHANNELS 3 Zrotation Xrotation Yrotation
                    JOINT LeftArm
                    {
                        OFFSET 0.151147 0.000000 0.013840
                        CHANNELS 3 Zrotation Xrotation Yrotation
                        JOINT LeftForeArm
                        {
                            OFFSET 0.084948 -0.230118 0.024381
                            CHANNELS 3 Zrotation Xrotation Yrotation
                            JOINT LeftHand
                            {
                                OFFSET 0.104618 -0.204084 -0.101129
                                CHANNELS 3 Zrotation Xrotation Yrotation
                                End Site
                                {
                                    OFFSET 0.026710 -0.238122 -0.073529
                                }
                            }
                        }
                    }
                }
                JOINT RightShoulder
                {
                    OFFSET -0.038418 0.017717 0.014059
                    CHANNELS 3 Zrotation Xrotation Yrotation
                    JOINT RightArm
                    {
                        OFFSET -0.153671 0.000000 0.014059
                        CHANNELS 3 Zrotation Xrotation Yrotation
                        JOINT RightForeArm
                        {
                            OFFSET -0.084948 -0.230118 0.025399
                            CHANNELS 3 Zrotation Xrotation Yrotation
                            JOINT RightHand
                            {
                                OFFSET -0.104617 -0.204083 -0.102750
                                CHANNELS 3 Zrotation Xrotation Yrotation
                                End Site
                                {
                                    OFFSET -0.044136 -0.235575 -0.075556
                                }
                            }
                        }
                    }
                }
                JOINT neck
                {
                    OFFSET 0.000923 0.092539 0.010084
                    CHANNELS 3 Zrotation Xrotation Yrotation
                    JOINT Head
                    {
                        OFFSET 0.000655 0.065599 0.007148
                        CHANNELS 3 Zrotation Xrotation Yrotation
                        JOINT head_end
                        {
                            OFFSET 0.001910 0.189245 -0.032366
                            CHANNELS 3 Zrotation Xrotation Yrotation
                            End Site
                            {
                                OFFSET 0.001661 0.164608 -0.028153
                            }
                        }
                        JOINT headfront
                        {
                            OFFSET 0.000000 0.000000 -0.142010
                            CHANNELS 3 Zrotation Xrotation Yrotation
                            End Site
                            {
                                OFFSET 0.000000 0.000000 -0.167006
                            }
                        }
                    }
                }
            }
        }
    }
}
MOTION
Frames: 8
Frame Time: 0.041667
0.000000 0.000000 0.000000 -0.000000 90.000000 -64.000000 21.999999 0.000000 0.000000 0.000000 0.000000 0.000000 0.000000 0.000000 0.000000 0.000000 0.000000 0.000000 0.000000 0.000000 0.000000 0.000000 0.000000 0.000000 0.000000 0.000000 0.000000 0.000000 0.000000 0.000000 0.000000 0.000000 0.000000 0.000000 0.000000 0.000000 0.000000 0.000000 0.000000 0.000000 0.000000 0.000000 -14.878596 0.193203 -5.752870 7.785419 -7.884346 -21.682122 16.000000 0.000000 0.000000 0.000000 0.000000 0.000000 10.001493 0.173665 0.984806 5.111118 -31.061313 -11.953661 0.000000 0.000000 0.000000 0.000000 0.000000 73.000000 0.000000 0.000000 0.000000 0.000000 0.000000 0.000000 0.000000 0.000000 0.000000
0.000000 0.000000 0.000000 -0.000000 90.000000 -64.000000 21.999999 0.000000 0.000000 0.000000 0.000000 0.000000 0.000000 0.000000 0.000000 0.000000 0.000000 0.000000 0.212545 -1.022336 -11.998145 0.000000 0.000000 0.000000 0.000000 0.000000 0.000000 0.000000 0.000000 0.000000 -0.156925 -5.002880 1.992539 0.000000 0.000000 0.000000 0.000000 0.000000 0.000000 0.000000 0.000000 0.000000 -24.489269 -8.064662 17.538492 20.414058 -11.349188 -19.582389 0.908666 1.222334 -27.181623 0.000000 0.000000 0.000000 13.001913 7.224973 0.974368 5.111118 -20.061313 -11.953661 0.000000 0.000000 0.000000 0.000000 0.000000 73.000000 0.000000 0.000000 -17.000000 0.000000 0.000000 0.000000 0.000000 0.000000 0.000000
0.000000 0.000000 0.000000 -0.000000 90.000000 -64.000000 21.999999 0.000000 0.000000 0.000000 0.000000 0.000000 0.000000 0.000000 0.000000 0.000000 0.000000 0.000000 0.212545 -1.022336 -11.998145 0.000000 0.000000 0.000000 0.000000 0.000000 0.000000 0.000000 0.000000 0.000000 0.347433 -10.005973 -1.969603 0.000000 0.000000 0.000000 0.000000 0.000000 0.000000 0.000000 0.000000 0.000000 -21.966551 11.000155 -6.311257 19.372156 -11.998315 -19.776178 16.000000 0.000000 0.000000 0.000000 0.000000 0.000000 13.001913 22.224972 0.974368 6.133273 -0.273002 -11.950743 0.000000 0.000000 0.000000 0.000000 0.000000 73.000000 0.000000 0.000000 -45.000000 0.000000 0.000000 0.000000 0.000000 0.000000 0.000000
0.000000 0.000000 0.000000 -0.000000 90.000000 -64.000000 21.999999 0.000000 0.000000 0.000000 0.000000 0.000000 0.000000 0.000000 0.000000 0.000000 0.000000 0.000000 -0.705322 -0.837656 -19.013410 0.000000 0.000000 0.000000 0.000000 0.000000 0.000000 0.000000 0.000000 0.000000 0.000000 0.000000 -3.000000 0.000000 -18.000000 0.000000 0.000000 0.000000 0.000000 0.000000 0.000000 0.000000 -21.966551 20.000155 -6.311257 19.372156 -11.998315 -19.776178 16.000000 0.000000 0.000000 0.000000 0.000000 0.000000 13.001913 37.224974 0.974368 5.111118 12.938686 -11.953661 0.000000 0.000000 0.000000 0.000000 0.000000 73.000000 6.546318 -23.378947 -64.601509 0.000000 0.000000 0.000000 0.000000 0.000000 0.000000
0.000000 0.000000 0.000000 -0.000000 90.000000 -64.000000 21.999999 0.000000 0.000000 0.000000 0.000000 0.000000 0.000000 0.000000 0.000000 0.000000 0.000000 0.000000 -0.658037 -0.854232 -22.013085 0.000000 0.000000 0.000000 0.000000 0.000000 0.000000 0.000000 0.000000 0.000000 0.000000 0.000000 -2.000000 0.000000 -18.000000 0.000000 0.000000 0.000000 0.000000 0.000000 0.000000 0.000000 -21.966551 20.000155 -6.311257 19.372156 -11.998315 -19.776178 16.000000 0.000000 0.000000 0.000000 0.000000 0.000000 13.798181 44.234311 0.369347 5.111118 12.938686 -11.953661 0.000000 0.000000 0.000000 0.000000 0.000000 73.000000 -53.571686 25.464049 -66.043229 0.000000 0.000000 0.000000 0.000000 0.000000 0.000000
0.000000 0.000000 0.000000 -0.000000 90.000000 -64.000000 21.999999 0.000000 0.000000 0.000000 0.000000 0.000000 0.000000 0.000000 0.000000 0.000000 0.000000 0.000000 -0.780565 -0.816248 -14.013931 0.000000 0.000000 0.000000 0.000000 0.000000 0.000000 0.000000 0.000000 0.000000 0.000000 0.000000 -1.000000 0.000000 -18.000000 0.000000 0.000000 0.000000 0.000000 0.000000 0.000000 0.000000 -21.966551 20.000155 -6.311257 19.372156 -11.998315 -19.776178 16.000000 0.000000 0.000000 0.000000 0.000000 0.000000 13.798181 34.234310 0.369347 5.111118 12.938686 -11.953661 0.000000 0.000000 0.000000 0.000000 0.000000 73.000000 -37.712027 18.037596 -46.805586 0.000000 0.000000 0.000000 0.000000 0.000000 0.000000
0.000000 0.000000 0.000000 -0.000000 90.000000 -64.000000 21.999999 0.000000 0.000000 0.000000 0.000000 0.000000 0.000000 0.000000 0.000000 0.000000 0.000000 0.000000 -0.950373 -0.792443 -2.015105 0.000000 0.000000 0.000000 0.000000 0.000000 0.000000 0.000000 0.000000 0.000000 0.000000 0.000000 0.000000 0.000000 -18.000000 0.000000 0.000000 0.000000 0.000000 0.000000 0.000000 0.000000 -21.966551 20.000155 -6.311257 19.372156 -11.998315 -19.776178 16.000000 0.000000 0.000000 0.000000 0.000000 0.000000 13.001913 27.224974 0.974368 5.111118 -2.061313 -11.953661 0.000000 0.000000 0.000000 0.000000 0.000000 73.000000 -10.503441 3.229302 -17.717398 0.000000 0.000000 0.000000 0.000000 0.000000 0.000000
0.000000 0.000000 0.000000 -0.000000 90.000000 -64.000000 21.999999 0.000000 0.000000 0.000000 0.000000 0.000000 0.000000 0.000000 0.000000 0.000000 0.000000 0.000000 -0.950373 -0.792443 -2.015105 0.000000 0.000000 0.000000 0.000000 0.000000 0.000000 0.000000 0.000000 0.000000 0.000000 0.000000 2.000000 0.000000 -18.000000 0.000000 0.000000 0.000000 0.000000 0.000000 0.000000 0.000000 -21.966551 20.000155 -6.311257 19.372156 -11.998315 -19.776178 16.000000 0.000000 0.000000 0.000000 0.000000 0.000000 14.594340 19.235239 -0.235745 8.107206 -25.698772 -12.609263 0.000000 0.000000 0.000000 0.000000 0.000000 73.000000 0.000000 0.000000 -7.000000 0.000000 0.000000 0.000000 0.000000 0.000000 0.000000
